<?xml version="1.0" encoding="UTF-8" standalone="no"?>
<!-- Created with Inkscape (http://www.inkscape.org/) -->

<svg
   version="1.1"
   id="svg1"
   width="1145.2266"
   height="487.96353"
   viewBox="0 0 1145.2266 487.96353"
   sodipodi:docname="logo.svg"
   inkscape:version="1.4.2 (f4327f4, 2025-05-13)"
   xmlns:inkscape="http://www.inkscape.org/namespaces/inkscape"
   xmlns:sodipodi="http://sodipodi.sourceforge.net/DTD/sodipodi-0.dtd"
   xmlns="http://www.w3.org/2000/svg"
   xmlns:svg="http://www.w3.org/2000/svg">
  <defs
     id="defs1" />
  <sodipodi:namedview
     id="namedview1"
     pagecolor="#ffffff"
     bordercolor="#000000"
     borderopacity="0.25"
     inkscape:showpageshadow="2"
     inkscape:pageopacity="0.0"
     inkscape:pagecheckerboard="0"
     inkscape:deskcolor="#d1d1d1"
     inkscape:zoom="1.1504741"
     inkscape:cx="451.11835"
     inkscape:cy="268.15031"
     inkscape:window-width="2560"
     inkscape:window-height="1009"
     inkscape:window-x="660"
     inkscape:window-y="1080"
     inkscape:window-maximized="1"
     inkscape:current-layer="g1" />
  <g
     inkscape:groupmode="layer"
     inkscape:label="Image"
     id="g1"
     transform="translate(-2.7733304,-2.7232192)">
    <path
       style="fill:#163247;stroke:none"
       d="m 185.33332,3.2376742 c -17.385,2.49503 -31.29113,11.3566498 -46.66666,19.0987498 -26.45729,13.32219 -52.215502,28.01424 -78.666662,41.33333 -18.45492,9.29269 -38.20273,18.81352 -48.64712,37.663576 -11.07725963,19.99227 -7.3528796,46.03036 -7.3528796,68 0,53.32276 -6.95488,116.10476 12.2561696,166.66667 22.83021,60.08724 68.45831,90.31673 119.743822,124.44446 17.78048,11.83191 39.87355,32.84936 62.66666,29.9753 21.81968,-2.7513 47.34397,-27.76017 65.33333,-39.75309 23.78705,-15.85804 48.2699,-30.91118 67.88065,-52 51.35502,-55.22567 49.45268,-125.67113 49.45268,-196 0,-31.05198 7.741,-74.58533 -7.87244,-102.66667 C 357.12396,70.617474 307.52417,54.099524 278.66665,39.670774 251.43791,26.056394 217.39816,-1.3641758 185.33332,3.2376742 M 351.99998,253.33333 c 0,8.90027 3.79561,29.08338 -1.37037,36.48354 -6.72587,9.63471 -28.45029,17.53209 -38.62963,23.76852 -31.63202,19.37954 -63.22676,40.95396 -96,58.25515 -11.16971,5.89656 -22.4487,0.75976 -32.9321,11.22737 -23.58969,23.55412 2.66475,68.81132 34.26544,52.39506 10.26351,-5.33179 18.38623,-15.74512 19.54732,-27.46297 0.5072,-5.11882 -3.48299,-12.1086 -0.0237,-16.52161 6.99229,-8.91992 22.85302,-15.23978 32.47633,-21.08231 22.93526,-13.92456 46.74746,-33.20376 72,-42.39608 -19.69161,50.75594 -60.64005,76.42672 -103.99999,105.33333 -11.01481,7.34322 -31.4703,27.64234 -45.33333,26.32304 -8.76752,-0.83435 -18.20215,-9.14888 -25.33334,-13.87964 -4.48757,-2.97697 -10.56111,-5.85347 -13.86214,-10.21089 -3.37947,-4.46098 -2.13785,-11.64331 -2.13785,-16.89917 v -41.33334 c 0,-10.40653 -0.40873,-18.83842 -5.95268,-28 -4.56938,-7.55106 -13.53532,-15.31278 -15.63786,-24 -3.33933,-13.79738 6.86859,-23.27162 -4.26337,-37.32818 C 106.83258,265.30123 63.924548,275.63177 67.119338,308 c 1.36725,13.85248 11.82494,26.14211 24.88065,30.52675 6.22172,2.0895 12.906782,0.31684 17.653292,5.67076 18.92967,21.35221 14.34671,46.45483 14.34671,73.13582 -11.98317,-5.17155 -23.46592,-14.19995 -33.333332,-22.66768 -60.86985,-52.23564 -57.33333,-124.22042 -57.33333,-197.33232 v -54.66666 c 0,-10.63432 -0.55279,-21.6036 6.18416,-30.61316 8.00691,-10.70793 23.65218,-16.361576 35.14917,-22.427986 25.29897,-13.34904 50.986062,-26.24092 76.000002,-40.10701 12.04529,-6.67712 28.25691,-18.43958 42.66666,-17.2675 14.09987,1.14689 27.93504,10.57947 40,17.2675 17.12382,9.49231 34.77516,18.08752 51.99999,27.40328 18.17745,9.83097 52.70432,20.14225 62.90023,39.097736 10.70353,19.89925 3.76644,56.42782 3.76644,78.64714 0,6.9084 2.50537,19.98584 -1.37037,25.96089 -6.01114,9.26715 -25.16522,15.77869 -34.62963,21.27161 -22.66176,13.15234 -45.28243,26.37799 -68,39.43416 -8.96683,5.15341 -20.49694,14.82593 -30.66666,16.8642 -8.9668,1.79718 -17.53052,-8.75557 -28,-6.90226 -22.93497,4.05993 -35.42468,30.85701 -21.6142,50.03292 9.17558,12.74033 26.23542,17.92775 40.28087,9.96091 12.25199,-6.94958 12.63071,-21.06958 22.74381,-28.29836 18.91876,-13.52303 41.04539,-23.87451 61.25618,-35.36523 19.84413,-11.28227 39.34218,-24.63589 60,-34.29218 M 963.99993,174.66667 H 890.6666 V 208 h 36 c 0,9.05802 3.57422,27.72876 -1.37036,35.47943 -12.98144,20.34859 -53.93766,8.25706 -67.94344,-3.03806 -32.61751,-26.30477 -29.5581,-83.3688 3.98047,-107.38994 10.68327,-7.65161 22.99048,-10.90617 36,-10.33227 17.30062,0.76318 26.66976,12.08024 41.33333,18.61417 l 21.33333,-28 c -27.54199,-37.312456 -97.08048,-33.775636 -129.33332,-6.26542 -26.33203,22.46 -37.67912,57.7051 -34.44035,91.59876 6.11996,64.04602 65.3938,106.195 127.77367,86.20782 12.00684,-3.84711 30.11361,-10.77024 37.86214,-21.2747 4.4065,-5.97375 2.13786,-17.87034 2.13786,-24.93312 v -64 M 462.66663,89.333334 V 286.66667 h 38.66667 v -96 h 1.33333 c 9.56291,24.86096 34.83577,49.3338 50.83541,70.66666 5.25349,7.00468 11.93139,21.01632 20.21708,24.52881 11.82657,5.01359 33.43758,0.80453 46.28084,0.80453 -4.14771,-10.78286 -13.27352,-20.13971 -20.16874,-29.33334 C 587.53723,240.94135 575.42619,224.41789 563.16561,208 c -4.48499,-6.00574 -20.41117,-21.13723 -19.54423,-28.7675 0.86125,-7.58022 13.5568,-18.56966 18.17692,-24.56583 15.39665,-19.98247 39.05664,-42.15397 48.86832,-65.333336 -12.65885,0 -34.6514,-4.29981 -46.23355,0.80452 -7.245,3.19292 -13.29281,15.672326 -17.93518,21.862146 -14.09131,18.78845 -34.70671,39.74927 -43.83126,61.33333 H 501.3333 V 89.333334 h -38.66667 m 166.66666,0 c 2.67529,11.692506 10.89949,22.947586 16.76749,33.333336 15.29997,27.0793 38.04028,57.11602 47.63379,86.66666 2.46737,7.60026 0.93205,17.41907 0.93205,25.33334 v 52 h 39.99999 c 0,-22.95657 -5.48453,-53.95297 0.85083,-76 3.40634,-11.85407 12.51913,-23.93252 18.58334,-34.66667 15.61767,-27.64457 36.3881,-56.86792 47.2325,-86.666666 -10.77189,0 -34.32764,-4.46757 -43.47941,1.37036 -6.19849,3.95406 -9.65804,16.246096 -12.84977,22.629636 -8.69621,17.39238 -17.6735,42.42792 -31.67082,56 L 683.67484,110.66667 671.47936,90.137854 629.33329,89.333334 M 999.99993,90.666664 1001.3333,156 v 130.66667 h 38.6666 v -73.33334 c 6.4575,0 17.864,-2.19627 23.4805,1.37039 5.4981,3.49151 8.6444,13.05122 11.5308,18.62961 7.5568,14.60445 16.1723,40.34375 28.5052,51.19548 7.7893,6.8539 34.3435,2.13786 44.4835,2.13786 L 1102.6666,208 c 44.1491,-7.87474 47.4942,-74.04793 21.2088,-101.27983 -22.1429,-22.940266 -60.3722,-17.386836 -89.2088,-17.386836 -11.0832,0 -24.0017,-1.81909 -34.66667,1.33333 M 130.66666,118.0494 c -26.4563,6.10583 -15.51968,46.04284 10.66666,38.52055 23.37651,-6.71513 12.84709,-43.94727 -10.66666,-38.52055 m 115.99999,-0.0576 c -26.42493,4.79683 -17.48311,44.98501 9.33333,38.81584 24.11977,-5.54879 14.48576,-43.13965 -9.33333,-38.81584 M 1039.9999,180 v -56 c 15.4922,0 36.9128,-3.44446 50.6461,5.32613 16.3108,10.41663 14.1335,38.40397 -2.6461,46.8889 -13.7657,6.96089 -33.0454,3.78497 -48,3.78497 m -914.66555,6.11729 c -24.61806,6.36224 -0.22504,33.86318 9.33745,41.50102 22.30359,17.81447 53.80166,24.01548 81.32818,16.73559 19.18018,-5.07255 37.65133,-16.09263 49.42902,-32.3539 6.6629,-9.19934 7.05719,-25.68984 -8.09568,-26.2747 -11.29912,-0.43612 -18.71934,14.11172 -26.66667,20.2356 -12.99202,10.01115 -30.48116,14.42848 -46.66666,12.31996 -13.33584,-1.73728 -26.19967,-7.78867 -35.87551,-17.17901 -6.50259,-6.31071 -11.70776,-17.84866 -22.79013,-14.98456 M 96.078178,298.2109 c 10.016082,-3.22199 17.572012,13.05967 6.515432,16.95884 -9.948172,3.50828 -16.738762,-13.67019 -6.515432,-16.95884 m 95.926952,16.00514 c 11.10171,-1.03863 13.56844,16.94845 1.3323,17.28191 -10.28532,0.28029 -12.01235,-16.28272 -1.3323,-17.28191 m 273.32817,79.11729 -5.33333,12 c 17.87369,9.36499 57.17923,10.33171 47.12963,-21.3282 -4.22961,-13.32479 -20.15055,-11.30013 -27.98046,-20.45781 -7.40605,-8.6619 7.27368,-10.69527 12.85083,-8.39709 3.64017,1.5 6.95865,3.5004 10.66666,4.84977 l 5.33333,-12 c -15.99694,-8.4152 -57.34956,-10.82245 -45.13578,19.99487 4.98544,12.57902 19.31079,10.64311 27.37244,19.1965 5.08594,5.39615 -0.001,11.66235 -6.23767,12.44649 -6.61593,0.83187 -12.73714,-4.1471 -18.66565,-6.30453 m 98.66666,-52.69547 c -32.15942,3.65596 -44.75919,45.16512 -18.66154,65.31893 8.61556,6.65332 20.18119,7.10567 30.66154,5.7963 43.68225,-5.45752 31.55456,-76.06665 -12,-71.11523 m 369.33331,-0.0473 c -30.23446,3.60046 -45.2675,41.72831 -21.27987,63.12552 9.08138,8.10063 21.60002,9.49626 33.27987,8.03703 43.70353,-5.46016 31.51171,-76.34411 -12,-71.16255 M 1093.3333,393.33333 1086.6666,404 c 17.6321,11.61861 58.6477,12.31567 48.463,-19.99898 -4.248,-13.47803 -19.9794,-11.42827 -27.9805,-20.52161 -7.6622,-8.70817 7.3118,-10.61841 12.8508,-8.32918 3.639,1.50394 6.9587,3.5004 10.6667,4.84977 l 5.3333,-12 c -15.6207,-8.21733 -57.9521,-10.82723 -45.3209,19.99487 5.1229,12.50082 19.4939,10.64087 27.5576,19.1965 5.1064,5.41788 -0.022,11.62479 -6.2377,12.4506 -6.7989,0.90328 -12.6506,-4.04533 -18.6656,-6.30864 M 629.33329,342.66667 c 1.55306,20.83386 4.86743,47.55562 0,68 L 671.99995,412 v -13.33333 h -28 v -57.33334 l -14.66666,1.33334 m 66.66666,-1.33334 c 0,17.65149 -4.96354,44.26819 4.48869,59.9465 9.82023,16.28865 40.71134,15.43131 49.58846,-1.28496 8.17163,-15.38777 3.25618,-41.66007 3.25618,-58.66154 h -13.33333 c 0,14.16927 5.27571,41.77588 -4.5586,53.15536 -7.64851,8.85026 -19.94051,5.03788 -23.88997,-5.16048 -4.82438,-12.45756 -3.93823,-33.83566 -0.88476,-46.66154 l -14.66667,-1.33334 m 82.66666,0 v 13.33334 h 20 V 412 h 14.66667 v -57.33333 h 21.33333 l -2.13786,-11.96298 -15.19547,-1.37036 h -38.66667 m 81.33333,0 V 412 h 13.33333 v -70.66667 h -13.33333 m 139.99999,0 V 412 h 13.33337 v -46.66667 c 13.8573,16.01388 24.8679,46.66411 48,46.66667 v -70.66667 h -14.6667 V 388 c -12.2687,-15.45959 -25.1945,-46.65007 -46.66667,-46.66667 m -435.99997,12.44035 c 27.90019,-4.89225 35.12581,40.93433 8,45.78703 -28.74927,5.14311 -36.04736,-40.86902 -8,-45.78703 m 369.33331,0.004 c 28.22688,-4.70634 34.54435,41.2218 6.66666,45.77877 -28.06485,4.58756 -34.23339,-41.18254 -6.66666,-45.77877 m -728.00406,43.55143 c 11.48972,1.27242 9.89219,18.42977 -1.30967,17.63375 -10.98194,-0.78039 -10.03461,-18.89009 1.30967,-17.63375 z"
       id="path1" />
  </g>
</svg>
